<svg xmlns="http://www.w3.org/2000/svg" viewBox="0 0 73 73">
  <title>wipe</title>
  <g id="c548bd90-4520-46b9-a507-3dbf6773f525" data-name="Layer 2">
    <g id="39ebdc56-80a6-4dfc-b3b1-172160960347" data-name="Layer 1">
      <g>
        <path d="M15.9,68.17A3.68,3.68,0,0,1,17,66.33a4.24,4.24,0,0,1,3-1.14A4.09,4.09,0,0,1,17,64a4,4,0,0,1-1.1-2,4.16,4.16,0,0,1-4,3.17,4.14,4.14,0,0,1,2.93,1.14A3.69,3.69,0,0,1,15.9,68.17Z" style="fill: #111"/>
        <path d="M41.63,39.26a4,4,0,0,1-1.18-2.49,4,4,0,0,1-1.18,2.49,3.9,3.9,0,0,1-2.85,1.22h8.13A4,4,0,0,1,41.63,39.26Z" style="fill: #111"/>
        <polygon points="28.05 56.9 28.05 56.91 28.05 56.91 28.05 56.9" style="fill: #111"/>
        <polygon points="44.55 40.48 44.55 40.48 44.55 40.48 44.55 40.48" style="fill: #111"/>
        <path d="M68.94,0h0Z" style="fill: #111"/>
        <path d="M64.71,2.92a3.86,3.86,0,0,1,1.06-1.74,4.16,4.16,0,0,1,3-1.18H60.64a4.16,4.16,0,0,1,3,1.18A3.86,3.86,0,0,1,64.71,2.92Z" style="fill: #111"/>
        <path d="M60.81,16.18h8.12A3.86,3.86,0,0,1,66,15,4.06,4.06,0,0,1,64.87,12,4.07,4.07,0,0,1,63.69,15,3.86,3.86,0,0,1,60.81,16.18Z" style="fill: #111"/>
        <path d="M32.12,45.66a4,4,0,0,1-1.06,1.82,4.08,4.08,0,0,1-3,1.22h8.13a4.08,4.08,0,0,1-3-1.22A4,4,0,0,1,32.12,45.66Z" style="fill: #111"/>
        <path d="M7.65,69.1a3.64,3.64,0,0,1,1.22-2.76,4.24,4.24,0,0,1,3-1.14,4.09,4.09,0,0,1-3-1.22,4.12,4.12,0,0,1,0-5.85,4.09,4.09,0,0,1,3-1.22,4.16,4.16,0,0,1,4,3.17,4,4,0,0,1,1.1-2,4.09,4.09,0,0,1,3-1.22h8a4.08,4.08,0,0,1-3-1.22A4,4,0,0,1,24,53.87a4,4,0,0,1-1.06,1.82,4.32,4.32,0,0,1-6,0,4,4,0,0,1-1.22-2.93,3.9,3.9,0,0,1,1.22-2.84,4.32,4.32,0,0,1,6,0A4,4,0,0,1,24,51.69,4,4,0,0,1,25,49.91a4.09,4.09,0,0,1,3-1.22,4.08,4.08,0,0,1-3-1.22,4,4,0,0,1-1.22-2.93A3.9,3.9,0,0,1,25,41.7a4.32,4.32,0,0,1,6,0,4,4,0,0,1,1.06,1.78,4,4,0,0,1,1.06-1.78,4.09,4.09,0,0,1,3-1.22h.24a4.16,4.16,0,0,1-4.15-4.15,3.9,3.9,0,0,1,1.22-2.85,4,4,0,0,1,2.93-1.22,4.15,4.15,0,0,1,4,3.64,3.91,3.91,0,0,1,1.18-2.43,4,4,0,0,1,2.93-1.22,4,4,0,0,1-4.06-4.06,3.83,3.83,0,0,1,1.18-2.8,4.12,4.12,0,0,1,5.77,0,3.83,3.83,0,0,1,1.18,2.8,3.83,3.83,0,0,1,1.18-2.8,3.93,3.93,0,0,1,2.89-1.18h8v0a4,4,0,0,1-3.9-4,4.06,4.06,0,1,1-8.13,0,3.83,3.83,0,0,1,1.18-2.8,4.12,4.12,0,0,1,5.77,0,3.83,3.83,0,0,1,1.18,2.8,3.83,3.83,0,0,1,1.18-2.8,3.91,3.91,0,0,1,2.72-1.16h.16A3.86,3.86,0,0,1,57.92,15,4.06,4.06,0,0,1,56.74,12a4,4,0,0,1,1.18-2.85,4,4,0,0,1,5.77,0A4,4,0,0,1,64.87,12,4,4,0,0,1,66,9.19,3.86,3.86,0,0,1,68.94,8h-.16a4.16,4.16,0,0,1-3-1.18A3.86,3.86,0,0,1,64.71,5a3.86,3.86,0,0,1-1.06,1.74,4.43,4.43,0,0,1-6,0A3.77,3.77,0,0,1,56.42,4a3.77,3.77,0,0,1,1.22-2.8,4.16,4.16,0,0,1,3-1.18H0V73H11.87a4.24,4.24,0,0,1-3-1.14A3.64,3.64,0,0,1,7.65,69.1Z" style="fill: #111"/>
        <path d="M15.9,70a3.68,3.68,0,0,1-1.1,1.84A4.13,4.13,0,0,1,11.87,73H20a4.24,4.24,0,0,1-3-1.14A3.68,3.68,0,0,1,15.9,70Z" style="fill: #111"/>
        <path d="M44.55,32.27h8.13a4,4,0,0,1-4.06-4.06,4,4,0,0,1-4.06,4.06Z" style="fill: #111"/>
      </g>
      <path d="M7.65,61.05a4,4,0,0,1,1.22-2.93,4.09,4.09,0,0,1,3-1.22,4.15,4.15,0,0,1,0,8.29,4.09,4.09,0,0,1-3-1.22A4,4,0,0,1,7.65,61.05Zm0,8a3.64,3.64,0,0,1,1.22-2.76,4.24,4.24,0,0,1,3-1.14,4.14,4.14,0,0,1,2.93,1.14,3.74,3.74,0,0,1,0,5.53A4.13,4.13,0,0,1,11.87,73a4.24,4.24,0,0,1-3-1.14A3.64,3.64,0,0,1,7.65,69.1Zm8.13-8A4,4,0,0,1,17,58.12a4.09,4.09,0,0,1,3-1.22,4.15,4.15,0,0,1,0,8.29A4.09,4.09,0,0,1,17,64,4,4,0,0,1,15.78,61.05Zm0,8A3.64,3.64,0,0,1,17,66.33a4.24,4.24,0,0,1,3-1.14,4.14,4.14,0,0,1,2.93,1.14,3.74,3.74,0,0,1,0,5.53A4.13,4.13,0,0,1,20,73a4.24,4.24,0,0,1-3-1.14A3.64,3.64,0,0,1,15.78,69.1ZM56.42,4a3.77,3.77,0,0,1,1.22-2.8,4.42,4.42,0,0,1,6,0A3.77,3.77,0,0,1,64.87,4a3.76,3.76,0,0,1-1.22,2.8,4.43,4.43,0,0,1-6,0A3.77,3.77,0,0,1,56.42,4Zm.33,8a4,4,0,0,1,1.18-2.85,4,4,0,0,1,5.77,0A4,4,0,0,1,64.87,12,4.07,4.07,0,0,1,63.69,15a4,4,0,0,1-5.77,0A4.06,4.06,0,0,1,56.74,12ZM23.82,44.55A3.9,3.9,0,0,1,25,41.7a4.32,4.32,0,0,1,6,0,3.9,3.9,0,0,1,1.22,2.84,4,4,0,0,1-1.22,2.93,4.32,4.32,0,0,1-6,0A4,4,0,0,1,23.82,44.55Zm8.13,0a3.9,3.9,0,0,1,1.22-2.84,4.32,4.32,0,0,1,6,0,3.9,3.9,0,0,1,1.22,2.84,4,4,0,0,1-1.22,2.93,4.32,4.32,0,0,1-6,0A4,4,0,0,1,32,44.55ZM15.69,52.76a3.9,3.9,0,0,1,1.22-2.84,4.32,4.32,0,0,1,6,0,3.9,3.9,0,0,1,1.22,2.84,4,4,0,0,1-1.22,2.93,4.32,4.32,0,0,1-6,0A4,4,0,0,1,15.69,52.76Zm8.13,0A3.9,3.9,0,0,1,25,49.91a4.32,4.32,0,0,1,6,0,3.9,3.9,0,0,1,1.22,2.84,4,4,0,0,1-1.22,2.93,4.32,4.32,0,0,1-6,0A4,4,0,0,1,23.82,52.76Zm8.45-16.42a3.9,3.9,0,0,1,1.22-2.85,4,4,0,0,1,2.93-1.22,4.17,4.17,0,0,1,4.06,4.06,4,4,0,0,1-1.22,2.93,3.9,3.9,0,0,1-2.85,1.22,4.16,4.16,0,0,1-4.15-4.15Zm8.13,0a3.9,3.9,0,0,1,1.22-2.85,4,4,0,0,1,2.93-1.22,4.17,4.17,0,0,1,4.06,4.06,4,4,0,0,1-1.22,2.93,3.9,3.9,0,0,1-2.84,1.22,4.16,4.16,0,0,1-4.15-4.15Zm.08-8.13a3.83,3.83,0,0,1,1.18-2.8,4.12,4.12,0,0,1,5.77,0,3.83,3.83,0,0,1,1.18,2.8,4.06,4.06,0,1,1-8.13,0Zm8.13,0a3.83,3.83,0,0,1,1.18-2.8,4.12,4.12,0,0,1,5.77,0,3.84,3.84,0,0,1,1.18,2.8,4.06,4.06,0,1,1-8.13,0Zm0-8.05a3.83,3.83,0,0,1,1.18-2.8,4.12,4.12,0,0,1,5.77,0,3.83,3.83,0,0,1,1.18,2.8,4.06,4.06,0,1,1-8.13,0Zm8.13,0a3.83,3.83,0,0,1,1.18-2.8,4.12,4.12,0,0,1,5.77,0,3.84,3.84,0,0,1,1.18,2.8,4.06,4.06,0,1,1-8.13,0ZM64.55,4a3.77,3.77,0,0,1,1.22-2.8,4.42,4.42,0,0,1,6,0A3.77,3.77,0,0,1,73,4a3.76,3.76,0,0,1-1.22,2.8,4.43,4.43,0,0,1-6,0A3.77,3.77,0,0,1,64.55,4Zm.33,8A4,4,0,0,1,66,9.19a4,4,0,0,1,5.77,0A4,4,0,0,1,73,12,4.07,4.07,0,0,1,71.82,15,4,4,0,0,1,66,15,4.06,4.06,0,0,1,64.87,12Z" style="fill: orange"/>
    </g>
  </g>
</svg>
